<svg xmlns="http://www.w3.org/2000/svg" viewBox="0 0 900 280" width="900" height="280">
  <!-- Background -->
  <rect width="900" height="280" fill="#1a1a2e" rx="12"/>
  <rect width="900" height="280" fill="#16213e" rx="12" opacity="0.6"/>

  <!-- Subtle grid lines -->
  <line x1="0" y1="70" x2="900" y2="70" stroke="#ffffff" stroke-width="0.5" opacity="0.04"/>
  <line x1="0" y1="140" x2="900" y2="140" stroke="#ffffff" stroke-width="0.5" opacity="0.04"/>
  <line x1="0" y1="210" x2="900" y2="210" stroke="#ffffff" stroke-width="0.5" opacity="0.04"/>

  <!-- Left waveform - mixed audio (cyan) -->
  <rect x="50" y="112" width="4" height="56" rx="2" fill="#00d2ff" opacity="0.85"/>
  <rect x="58" y="98" width="4" height="84" rx="2" fill="#00bcd4" opacity="0.85"/>
  <rect x="66" y="122" width="4" height="36" rx="2" fill="#00d2ff" opacity="0.85"/>
  <rect x="74" y="85" width="4" height="110" rx="2" fill="#00bcd4" opacity="0.85"/>
  <rect x="82" y="105" width="4" height="70" rx="2" fill="#00d2ff" opacity="0.85"/>
  <rect x="90" y="118" width="4" height="44" rx="2" fill="#00bcd4" opacity="0.85"/>
  <rect x="98" y="92" width="4" height="96" rx="2" fill="#00d2ff" opacity="0.85"/>
  <rect x="106" y="125" width="4" height="30" rx="2" fill="#00bcd4" opacity="0.85"/>
  <rect x="114" y="102" width="4" height="76" rx="2" fill="#00d2ff" opacity="0.85"/>
  <rect x="122" y="115" width="4" height="50" rx="2" fill="#00bcd4" opacity="0.85"/>

  <!-- Arrow -->
  <line x1="138" y1="140" x2="162" y2="140" stroke="#ffffff" stroke-width="1.5" opacity="0.4" stroke-dasharray="4,3"/>
  <polygon points="164,136 172,140 164,144" fill="#ffffff" opacity="0.4"/>

  <!-- Top separated waveform (pink) - Speaker A -->
  <rect x="184" y="98" width="3" height="24" rx="1.5" fill="#f857a6" opacity="0.9"/>
  <rect x="191" y="90" width="3" height="40" rx="1.5" fill="#ff5858" opacity="0.9"/>
  <rect x="198" y="102" width="3" height="16" rx="1.5" fill="#f857a6" opacity="0.9"/>
  <rect x="205" y="85" width="3" height="50" rx="1.5" fill="#ff5858" opacity="0.9"/>
  <rect x="212" y="95" width="3" height="30" rx="1.5" fill="#f857a6" opacity="0.9"/>

  <!-- Bottom separated waveform (green) - Speaker B -->
  <rect x="184" y="155" width="3" height="30" rx="1.5" fill="#43e97b" opacity="0.9"/>
  <rect x="191" y="160" width="3" height="20" rx="1.5" fill="#38f9d7" opacity="0.9"/>
  <rect x="198" y="148" width="3" height="44" rx="1.5" fill="#43e97b" opacity="0.9"/>
  <rect x="205" y="162" width="3" height="16" rx="1.5" fill="#38f9d7" opacity="0.9"/>
  <rect x="212" y="152" width="3" height="36" rx="1.5" fill="#43e97b" opacity="0.9"/>

  <!-- Microphone icon -->
  <rect x="248" y="108" width="16" height="28" rx="8" fill="none" stroke="#00d2ff" stroke-width="2"/>
  <path d="M244,130 Q244,146 256,146 Q268,146 268,130" fill="none" stroke="#00d2ff" stroke-width="2" stroke-linecap="round"/>
  <line x1="256" y1="146" x2="256" y2="154" stroke="#00d2ff" stroke-width="2" stroke-linecap="round"/>
  <line x1="250" y1="154" x2="262" y2="154" stroke="#00d2ff" stroke-width="2" stroke-linecap="round"/>
  <path d="M272,116 Q278,122 272,130" fill="none" stroke="#7b2ff7" stroke-width="1.5" opacity="0.5" stroke-linecap="round"/>
  <path d="M276,112 Q284,122 276,134" fill="none" stroke="#7b2ff7" stroke-width="1.5" opacity="0.3" stroke-linecap="round"/>

  <!-- Title -->
  <text x="300" y="132" font-family="system-ui, -apple-system, sans-serif" font-size="42" font-weight="700" fill="#c084fc">Voice Sampler</text>
  <text x="300" y="168" font-family="system-ui, -apple-system, sans-serif" font-size="28" font-weight="300" fill="#a0a0c0" letter-spacing="3">FOR TTS</text>

  <!-- Subtitle -->
  <text x="300" y="200" font-family="monospace" font-size="13" fill="#6a6a8a">
    YouTube &#x2192; SAM Audio &#x2192; Speaker Diarization &#x2192; Clean Voice Clips
  </text>

  <!-- Right side decorative waveform -->
  <rect x="700" y="120" width="4" height="40" rx="2" fill="#00d2ff" opacity="0.12"/>
  <rect x="710" y="105" width="4" height="70" rx="2" fill="#7b2ff7" opacity="0.12"/>
  <rect x="720" y="125" width="4" height="30" rx="2" fill="#b465da" opacity="0.12"/>
  <rect x="730" y="95" width="4" height="90" rx="2" fill="#f857a6" opacity="0.12"/>
  <rect x="740" y="115" width="4" height="50" rx="2" fill="#ff5858" opacity="0.12"/>
  <rect x="750" y="102" width="4" height="76" rx="2" fill="#43e97b" opacity="0.12"/>
  <rect x="760" y="128" width="4" height="24" rx="2" fill="#38f9d7" opacity="0.12"/>
  <rect x="770" y="110" width="4" height="60" rx="2" fill="#00d2ff" opacity="0.12"/>
  <rect x="780" y="90" width="4" height="100" rx="2" fill="#7b2ff7" opacity="0.12"/>
  <rect x="790" y="120" width="4" height="40" rx="2" fill="#b465da" opacity="0.12"/>
  <rect x="800" y="100" width="4" height="80" rx="2" fill="#f857a6" opacity="0.12"/>
  <rect x="810" y="122" width="4" height="36" rx="2" fill="#ff5858" opacity="0.12"/>
  <rect x="820" y="108" width="4" height="64" rx="2" fill="#43e97b" opacity="0.12"/>
  <rect x="830" y="130" width="4" height="20" rx="2" fill="#38f9d7" opacity="0.12"/>
  <rect x="840" y="98" width="4" height="84" rx="2" fill="#00d2ff" opacity="0.12"/>
  <rect x="850" y="118" width="4" height="44" rx="2" fill="#7b2ff7" opacity="0.12"/>

  <!-- Tech badges -->
  <rect x="300" y="220" width="78" height="22" rx="4" fill="#1e1e3a" stroke="#3a3a5c" stroke-width="1"/>
  <text x="339" y="235" font-family="monospace" font-size="10" fill="#00d2ff" text-anchor="middle">SAM Audio</text>

  <rect x="388" y="220" width="68" height="22" rx="4" fill="#1e1e3a" stroke="#3a3a5c" stroke-width="1"/>
  <text x="422" y="235" font-family="monospace" font-size="10" fill="#f857a6" text-anchor="middle">pyannote</text>

  <rect x="466" y="220" width="72" height="22" rx="4" fill="#1e1e3a" stroke="#3a3a5c" stroke-width="1"/>
  <text x="502" y="235" font-family="monospace" font-size="10" fill="#43e97b" text-anchor="middle">Chatterbox</text>

  <rect x="548" y="220" width="60" height="22" rx="4" fill="#1e1e3a" stroke="#3a3a5c" stroke-width="1"/>
  <text x="578" y="235" font-family="monospace" font-size="10" fill="#ffb347" text-anchor="middle">Audacity</text>
</svg>
